<svg id="Capa_1" enable-background="new 0 0 511.987 511.987" height="512" viewBox="0 0 511.987 511.987" width="512" xmlns="http://www.w3.org/2000/svg"><g><path d="m375.472 449.911c34.464 0 62.502-28.039 62.502-62.502v-39.255c9.286-3.137 15.992-11.926 15.992-22.257 0-12.953-10.538-23.491-23.492-23.491-12.953 0-23.491 10.538-23.491 23.491 0 10.331 6.706 19.119 15.991 22.257v39.255c0 26.193-21.31 47.502-47.502 47.502-26.193 0-47.503-21.31-47.503-47.502v-39.255c9.285-3.138 15.991-11.926 15.991-22.257 0-12.953-10.538-23.491-23.491-23.491s-23.491 10.538-23.491 23.491c0 10.331 6.706 19.119 15.991 22.257v39.255c0 34.463 28.039 62.502 62.503 62.502zm55.002-132.506c4.683 0 8.492 3.809 8.492 8.491s-3.81 8.492-8.492 8.492-8.491-3.81-8.491-8.492 3.809-8.491 8.491-8.491zm-110.005 0c4.682 0 8.491 3.809 8.491 8.491s-3.81 8.492-8.491 8.492-8.491-3.81-8.491-8.492 3.81-8.491 8.491-8.491z"/><path d="m37.089 511.986h444.688c11.476 0 20.419-9.982 19.168-21.384l-8.756-79.901c-.451-4.119-4.146-7.084-8.272-6.639-4.117.452-7.089 4.155-6.638 8.272l8.756 79.902c.277 2.535-1.705 4.75-4.258 4.75h-212.602-.01c-2.533 0-4.537-2.194-4.258-4.75l21.63-197.371c.238-2.175 2.069-3.816 4.258-3.816h169.354c2.188 0 4.019 1.641 4.258 3.816l9.037 82.469c.451 4.117 4.129 7.087 8.272 6.639 4.117-.452 7.089-4.155 6.638-8.272l-9.037-82.469c-1.074-9.795-9.314-17.182-19.168-17.182h-82.974l-11.582-105.69c-1.456-13.291-12.637-23.313-26.007-23.313h-29.839v-42.767c0-57.5-46.78-104.28-104.28-104.28s-104.28 46.78-104.28 104.28v42.767h-29.838c-13.371 0-24.552 10.022-26.008 23.313l-34.259 312.614c-1.695 15.475 10.446 29.012 26.007 29.012zm-11.096-27.379 34.259-312.613c.622-5.67 5.393-9.947 11.098-9.947h29.838v27.928c-9.798 3.172-16.905 12.38-16.905 23.221 0 13.457 10.948 24.405 24.405 24.405s24.405-10.948 24.405-24.405c0-10.841-7.107-20.049-16.905-23.221v-27.928h71.78c4.143 0 7.5-3.358 7.5-7.5s-3.357-7.5-7.5-7.5h-71.78v-42.767c0-49.229 40.051-89.28 89.28-89.28s89.28 40.051 89.28 89.28v42.767h-71.78c-4.143 0-7.5 3.358-7.5 7.5s3.357 7.5 7.5 7.5h71.78v27.928c-9.798 3.172-16.904 12.38-16.904 23.221 0 13.457 10.947 24.405 24.404 24.405s24.405-10.948 24.405-24.405c0-10.841-7.107-20.049-16.905-23.221v-27.928h29.839c5.704 0 10.475 4.276 11.097 9.947l11.402 104.056h-71.29c-9.855 0-18.096 7.387-19.168 17.183l-21.63 197.371c-.236 2.148-.046 4.562.369 6.383h-213.278c-6.65-.001-11.821-5.754-11.096-12.38zm82.694-280.816c5.187 0 9.405 4.219 9.405 9.405s-4.219 9.405-9.405 9.405-9.405-4.219-9.405-9.405 4.218-9.405 9.405-9.405zm193.56 0c5.187 0 9.405 4.219 9.405 9.405s-4.219 9.405-9.405 9.405-9.404-4.219-9.404-9.405 4.219-9.405 9.404-9.405z"/></g></svg>